<svg width="17" height="22" viewBox="0 0 17 22" fill="none" xmlns="http://www.w3.org/2000/svg">
<g clip-path="url(#clip0_791_7563)">
<path d="M0.00120032 9.15055C0.940359 9.15055 1.85558 9.15055 2.79412 9.15055C2.79412 9.0427 2.79412 8.9633 2.79412 8.8839C2.79474 7.72311 2.78246 6.56231 2.79842 5.40152C2.83648 2.64144 5.04258 0.319853 7.88645 0.0306916C10.9212 -0.278024 13.6736 1.75677 14.142 4.66084C14.185 4.92807 14.1929 5.20005 14.2187 5.48506C13.4293 5.48506 12.6743 5.48506 11.9119 5.48506C11.8782 5.25871 11.8567 5.03177 11.8088 4.81075C11.4804 3.28732 9.97408 2.15674 8.38733 2.23733C6.6815 2.32384 5.30775 3.54567 5.14018 5.13487C5.1101 5.42048 5.11071 5.71023 5.10949 5.99821C5.1058 6.95932 5.10826 7.92042 5.10826 8.88153C5.10826 8.96093 5.10826 9.04092 5.10826 9.14995C9.07973 9.14995 13.0273 9.14995 17 9.14995C17 9.25069 17 9.32238 17 9.39408C17 12.2626 17.0024 15.1311 16.9987 17.9996C16.9963 19.9586 15.6489 21.5466 13.6657 21.9264C13.4048 21.9762 13.1335 21.9951 12.8671 21.9951C9.95628 21.9999 7.0455 22.0005 4.13473 21.9975C1.81384 21.9945 0.00733861 20.2578 0.00304181 18.0215C-0.00186882 15.1453 0.00181415 12.2697 0.00181415 9.39349C0.00120032 9.32772 0.00120032 9.26135 0.00120032 9.15055ZM9.05211 18.8155C9.05211 18.0707 9.06193 17.362 9.04597 16.6539C9.04168 16.4554 9.10858 16.3808 9.29396 16.3114C10.3086 15.9328 10.8488 14.8733 10.5658 13.8518C10.2896 12.8551 9.24976 12.2022 8.19214 12.361C7.2094 12.5085 6.47894 13.2397 6.37459 14.1801C6.27024 15.1228 6.82207 15.9944 7.75264 16.3257C7.9153 16.3837 7.95458 16.4578 7.95213 16.6107C7.94354 17.1203 7.94906 17.6305 7.94906 18.14C7.94906 18.3593 7.94906 18.5785 7.94906 18.8149C8.25168 18.8149 8.52606 18.8149 8.79983 18.8149C8.87471 18.8155 8.9496 18.8155 9.05211 18.8155Z" fill="#EC6929"/>
<path d="M8.48996 15.3961C7.91726 15.3919 7.45075 14.9369 7.45935 14.3899C7.46794 13.8418 7.94488 13.3915 8.51083 13.398C9.07924 13.4045 9.54882 13.8661 9.54084 14.4101C9.53286 14.9623 9.06635 15.4002 8.48996 15.3961Z" fill="#EC6929"/>
</g>
<defs>
<clipPath id="clip0_791_7563">
<rect width="17" height="22" fill="white"/>
</clipPath>
</defs>
</svg>
